<?xml version="1.0" standalone="no"?>
<!DOCTYPE svg PUBLIC "-//W3C//DTD SVG 20010904//EN"
 "http://www.w3.org/TR/2001/REC-SVG-20010904/DTD/svg10.dtd">
<svg version="1.0" xmlns="http://www.w3.org/2000/svg"
 width="447.000000pt" height="447.000000pt" viewBox="0 0 447.000000 447.000000"
 preserveAspectRatio="xMidYMid meet">
<metadata>
Created by potrace 1.11, written by Peter Selinger 2001-2013
</metadata>
<g transform="translate(0.000000,447.000000) scale(0.100000,-0.100000)"
fill="#000000" stroke="none">
<path d="M2379 4256 c-2 -2 -28 -6 -58 -9 -31 -3 -82 -20 -120 -38 -36 -18
-84 -34 -106 -36 -98 -8 -246 -51 -321 -94 -33 -18 -34 -18 -79 2 -59 26 -77
30 -156 30 -200 0 -360 -161 -362 -365 0 -69 23 -148 58 -201 l24 -35 -27 -14
c-130 -68 -207 -247 -171 -399 18 -79 46 -126 110 -188 l59 -57 -31 -33 c-62
-66 -97 -165 -93 -261 2 -67 27 -146 56 -183 l20 -26 -20 -22 c-11 -12 -32
-46 -47 -74 -24 -48 -29 -53 -59 -53 -19 0 -64 -9 -101 -21 -135 -41 -197
-140 -196 -314 0 -234 72 -358 231 -399 66 -17 189 -13 280 8 36 8 92 21 125
27 33 7 65 14 70 15 72 15 299 23 311 11 3 -3 -6 -45 -21 -93 -15 -49 -28 -95
-30 -104 -2 -8 -8 -33 -14 -55 -5 -22 -13 -56 -16 -75 -3 -19 -8 -46 -10 -60
-9 -41 -9 -152 0 -200 9 -54 40 -131 73 -182 15 -24 22 -44 18 -55 -4 -10 -10
-36 -13 -58 -25 -179 51 -351 198 -445 l51 -33 176 176 177 177 135 4 c74 3
151 10 170 15 19 6 35 11 36 11 1 0 7 -21 14 -46 29 -101 127 -212 227 -258
36 -16 44 -16 55 -5 14 15 138 162 198 234 19 23 96 114 170 201 74 87 163
192 197 233 l63 74 -38 46 c-50 61 -60 71 -111 104 -68 45 -125 63 -226 71
-46 3 -150 -15 -182 -32 -23 -13 -29 -6 -39 55 -22 129 -105 363 -175 491 -21
41 -39 75 -39 76 0 2 60 4 133 4 251 3 420 71 580 235 104 107 179 248 204
387 10 58 10 814 0 945 -15 175 -48 281 -132 419 -29 47 -43 83 -43 106 -1
136 -83 263 -212 327 -49 25 -66 28 -155 28 -88 0 -107 -3 -157 -28 -31 -15
-59 -31 -62 -35 -2 -4 -88 -7 -190 -5 -185 2 -187 2 -249 32 -34 17 -80 34
-102 37 -22 3 -43 8 -46 10 -3 2 -8 2 -10 0z"/>
</g>
</svg>
